<?xml version="1.0" encoding="UTF-8"?>
<!DOCTYPE svg PUBLIC "-//W3C//DTD SVG 1.1//EN" "http://www.w3.org/Graphics/SVG/1.1/DTD/svg11.dtd">
<!-- Creator: CorelDRAW (Zkušební verze) -->
<svg xmlns="http://www.w3.org/2000/svg" xml:space="preserve" width="15.65mm" height="15.65mm" version="1.1" style="shape-rendering:geometricPrecision; text-rendering:geometricPrecision; image-rendering:optimizeQuality; fill-rule:evenodd; clip-rule:evenodd"
viewBox="0 0 1565 1565"
 xmlns:xlink="http://www.w3.org/1999/xlink"
 xmlns:xodm="http://www.corel.com/coreldraw/odm/2003">
 <defs>
  <style type="text/css">
   <![CDATA[
    .str0 {stroke:#2B2A29;stroke-width:75;stroke-miterlimit:22.9256}
    .fil1 {fill:#FEFEFE}
    .fil0 {fill:#2B2A29}
   ]]>
  </style>
 </defs>
 <g id="Vrstva_x0020_1">
  <metadata id="CorelCorpID_0Corel-Layer"/>
  <rect class="fil0 str0" x="28.98" y="44.13" width="1491.87" height="1491.87" rx="250" ry="250"/>
  <path class="fil1" d="M819.15 1292.08l375.21 -222.66c18.95,-11.25 25.25,-35.96 14.01,-54.91l-89.39 -150.62c-6.28,-10.58 -16.76,-17.22 -28.08,-19.06l-285.5 -72.84 72.84 -285.5c3.81,-10.83 3,-23.2 -3.27,-33.79l-89.39 -150.61c-11.25,-18.96 -35.96,-25.26 -54.91,-14.01l-375.2 222.66c-18.95,11.25 -25.26,35.96 -14.01,54.91l89.38 150.62c5.79,9.75 15.14,16.15 25.44,18.54l0.07 0.01 288.04 73.37 -73.6 287.99 -0.02 0.07c-2.84,10.18 -1.7,21.45 4.09,31.2l89.38 150.62c11.25,18.95 35.96,25.26 54.91,14.01z"/>
 </g>
</svg>
